<svg version="1" xmlns="http://www.w3.org/2000/svg" width="2666.667" height="2666.667" viewBox="0 0 2000.000000 2000.000000"><path d="M962.8.5c-.2.1-5.9.5-12.8.9-17.1.8-26.4 1.4-33.5 2.1-3.3.3-8.5.8-11.5 1-5.5.5-23.1 2.3-27.9 3-1.4.2-6.4.8-11.1 1.5-4.7.6-10 1.3-11.7 1.6-8.9 1.1-11.6 1.6-21.8 3.4-6 1-12.3 2.1-14 2.4-2.7.4-13.6 2.5-16 3.1-.5.1-2.8.5-5 1-4.6.9-5.6 1.1-11 2.4-3.8.9-5.7 1.3-12.2 2.6-1.6.3-10.7 2.6-20.3 5.1-9.6 2.5-18.3 4.7-19.3 4.9-4.4 1-37.2 11.1-52.5 16.1-20 6.7-47 16.8-68.2 25.7-24 10-32.5 13.9-57 26.2-82.6 41.2-157.7 91.9-223.6 151-24.4 21.9-60.9 58.4-78.7 78.9-1 1.2-3.3 3.7-5 5.6-3 3.3-17.4 20.1-21 24.5-35.9 43.9-72.7 96.8-94.9 136.5-1.4 2.5-5.8 10.3-9.8 17.5-14.7 26.1-35.4 69-47.9 99.5-2.9 6.9-5.6 13.4-6 14.5C62.2 649.9 39 719.4 35.5 735c-.2.8-1.7 6.9-3.5 13.5-4.2 16-3.8 14.5-7.8 32.5-3.2 14.4-8.7 41.9-9.6 48.5-.4 2.3-.9 5.2-1.1 6.5-.6 2.9-1.6 9-3 19.3-.3 2.3-1 6.9-1.5 10.2-.5 3.3-1.2 8.8-1.5 12.2-.3 3.4-.7 7-.9 8-.6 3.1-2 17.9-4.1 43.3-1.4 17.5-2 38.6-2 71 0 41.6.9 62.1 4 94.5.2 2.2.7 7.1 1 11 .4 3.8.8 7.7 1 8.5.1.8.6 4.6 1 8.3.3 3.7.8 7.8 1.1 9 .2 1.2.6 4.1.9 6.4.3 2.4 1 7.5 1.6 11.5.6 4 1.3 8.6 1.5 10.3.2 1.6.6 4.1 1 5.5.3 1.3.7 4 1 6 .2 1.9 1.1 6.6 1.9 10.5.8 3.8 1.6 8.3 1.9 10 2.1 11.4 4.5 22.3 10 45.7 12.9 53.9 34.2 116.8 56.2 165.6 1.3 2.9 2.4 5.4 2.4 5.6 0 .7 11.2 24.1 18.9 39.6 8.7 17.4 13.5 26.4 23.1 43.5 1.8 3.3 13.1 22.2 22.4 37.8 9.6 15.9 45.3 67.3 55.7 80.1.5.6 5.7 7.2 11.7 14.6 5.9 7.4 11.9 14.8 13.2 16.4 16.9 20 18.4 21.6 34.5 39.1 19.5 21.1 51 52.1 69.5 68.1 2.5 2.1 5 4.4 5.5 5 .6.6 5.3 4.6 10.5 9 5.2 4.3 9.7 8.1 10 8.4 1.1 1.3 30.2 24.2 39.5 31.2 20.8 15.6 46.7 33.2 72 49 11.9 7.4 34.4 20.8 35 20.8.1 0 4.7 2.5 10.1 5.6 10.6 6 47.6 24.8 60.9 30.9 45.5 20.9 91 38 137 51.5 7.7 2.2 15.4 4.5 17 5 5.2 1.6 41.8 10.8 45 11.3 1.7.3 6.2 1.3 10 2.2 3.9.9 8.4 1.9 10 2.2 1.7.2 8.4 1.5 15 2.8 6.6 1.3 15.2 2.8 19 3.4 3.9.6 8.1 1.3 9.5 1.6 1.4.3 4.3.8 6.5 1 9.5 1.2 12.2 1.6 14.7 2.1 2.8.6 6.2 1 14.3 1.9 2.8.3 8.8 1 13.5 1.5 12.7 1.4 17.7 1.9 26 2.5 4.1.3 9.8.8 12.5 1 16.2 1.3 39.1 2 70 2 50.4 0 75.4-1.4 123-7.1 4.1-.5 17-2.2 21.5-2.9 1.4-.2 4.8-.7 7.5-1 2.8-.3 5.7-.7 6.5-1 1.5-.4 2.7-.6 14-2.4 6.8-1.1 8-1.4 14.5-2.6 2.2-.4 4.7-.9 5.5-1 6.2-1 14.7-2.8 33-7.1 15.1-3.6 23.3-5.5 25-5.9 4.2-.8 43.4-12.3 56.5-16.5 26.7-8.6 59.8-20.8 76.2-28.1 2.4-1.1 4.5-1.9 4.7-1.9 1.6 0 42.6-18.9 60.7-28 86.6-43.5 163.5-97.1 236.3-165 8.1-7.5 37.8-37.2 45.1-45.1 14.6-15.6 28.3-31.1 37-41.8 1.1-1.3 2.7-3.2 3.5-4 .8-.9 4-4.8 7-8.6 3-3.9 5.7-7.2 6-7.5 1-.9 19.5-25.3 27.8-36.7 10-13.7 31.1-45.1 37.2-55.3 2.4-4.1 4.7-7.7 5-8 .7-.6 14.4-23.9 18.5-31.5 1.5-2.8 3.5-6.4 4.5-8 3.7-6.2 10.6-19.6 19.6-37.7 35.1-70.4 61.1-142.8 78.8-219.9 2.5-10.7 4.8-21 5.1-22.7.3-1.7 1.6-8.6 2.9-15.4 2.4-12.1 4-21.3 5.1-29.3.3-2.2 1-6.5 1.5-9.5s1.2-7.8 1.5-10.5c.4-2.8.8-5.7 1-6.5.2-.8.7-4.7 1.1-8.5.4-3.9.8-7.7.9-8.5.1-.8.5-4.7.9-8.5.4-3.9.9-8.8 1.2-11 .2-2.2.7-8.1 1-13 .3-5 .7-10.1.9-11.4 1.9-11.7 2.7-95.8 1.2-120.6-.4-6.6-.9-15.6-1.2-20-.5-7.6-.8-12.3-2-24.5-1-9.5-2.6-24.4-3-27.5-.6-4.8-1.7-12.8-2-15.5-.2-1.4-.7-4.8-1-7.5-.4-2.8-1.3-8.8-2.1-13.5-.8-4.7-1.7-10.1-2-12-.3-1.9-.7-4.5-1-5.8-.2-1.2-.6-3.4-.9-5-4.7-24.3-8.7-42.8-13.7-62.2-1.6-6.3-3.1-12.4-3.3-13.4-2.2-9.8-14.9-51.2-23.5-76.1-4.7-13.6-21.2-55.4-26-66-1.8-3.9-4-8.8-5-11-1-2.2-2.8-6.3-4-9-4.3-9.8-24.8-50.2-32-63-5.8-10.5-16.1-28-26.3-45-.7-1.1-8.2-12.6-16.8-25.6-48.3-73.1-107.1-140.4-173-198.1-12.8-11.3-32.3-27.5-41.9-35-1.9-1.5-6.9-5.3-11-8.5-6.7-5.2-25.7-19.1-36.5-26.7-11.7-8.2-54-35.6-54.9-35.6-.2 0-5.2-2.9-11.1-6.5-5.9-3.6-10.8-6.5-11-6.5-.2 0-3.4-1.7-7.2-3.9-29.1-16.4-68.3-35.5-101.3-49.3-10-4.1-39.8-15.8-41.5-16.2-.5-.2-2.1-.7-3.5-1.3-1.4-.5-8.6-3-16-5.6-11.6-3.9-20.6-6.8-48.2-15.3-5.5-1.6-50.1-13.1-53.8-13.8-1.4-.2-7-1.4-12.5-2.6-5.5-1.2-14.5-3-20-4-5.5-1.1-11.1-2.2-12.5-2.4-1.4-.3-6.8-1.2-12-2.1-5.2-.8-10.6-1.7-12-1.9-1.4-.3-4.5-.7-7-1.1-2.5-.3-7.6-1-11.5-1.5-7.2-1-10.8-1.4-21-2.5-3.3-.4-7.6-.9-9.5-1.1-1.9-.2-6-.6-9-.9-3-.3-7.7-.7-10.5-1-2.7-.3-9.3-.7-14.5-1-5.2-.3-11.7-.8-14.5-1.1-5.3-.5-92.2-1.4-92.7-.9zm83.7 204.9c2.2.2 8.7.7 14.5 1.1 5.8.4 11.9.8 13.5 1 5.6.5 15 1.6 18.5 2 1.9.3 5.5.7 8 1 2.5.3 6.3.8 8.5 1.1 2.2.3 5.1.7 6.5.9 3.8.5 17.2 2.6 20 3.1 1.4.3 4.8.9 7.5 1.4 10.9 1.9 37.1 7.5 47 10 2.2.6 5.1 1.3 6.5 1.6 1.4.3 3.4.8 4.5 1.1 1.1.4 2.5.8 3 .9.6.2 1.9.5 3 .8 6.7 1.6 28.1 8.1 40.5 12.1 80.9 26.4 157.8 66.4 227 117.9 7.4 5.5 14.2 10.6 15 11.3 4.4 3.5 32.7 26.8 33.6 27.7.6.6 4.9 4.5 9.5 8.6 10.6 9.4 47.8 46.6 58.6 58.5 4.4 4.9 12.9 14.8 18.8 22 5.9 7.1 11.5 14 12.5 15.2 1.1 1.2 6.2 7.9 11.5 15 5.3 7 10.4 13.7 11.3 14.8 3.8 4.6 28.7 42.5 36 54.7 20.8 34.6 39.7 71.9 52.8 104.2 2.5 6.1 5.1 12.4 5.9 14.1 2 4.5 14.5 39.4 14.5 40.5 0 .6.4 1.8 1 2.8 1 1.8 8.5 26.6 11.8 39.2 1.1 4.1 2.3 8.2 2.6 9 .3.8.8 2.6 1.1 4 .2 1.4 1.8 8.3 3.5 15.5 1.7 7.1 3.3 14.6 3.6 16.5.3 1.9.7 3.7.9 4 .5.8 6.3 33.4 7.5 42 .6 4.1 1.2 8.6 1.5 10 .9 6.3 1.5 10.9 2.1 16.5.3 3.3.7 7.3.9 9 .3 1.6.7 6.4 1 10.5.4 4.1.8 9.3 1 11.5 2.6 28.4 2.6 93 0 123.5-.4 5.1-1.5 16.7-2.1 22.5-.7 7.1-3.4 28.8-3.9 31.5-.1.8-.6 3.5-1 6-.3 2.5-.9 5.8-1.1 7.5-2.4 15.4-8.4 44-12.9 62-3.1 12.1-5.8 22.8-6 23.7-2.7 11.9-21.6 67.5-26.6 78.5-1 2.3-1.9 4.4-1.9 4.8 0 .3-.8 2.4-1.9 4.8-1 2.3-3.8 8.7-6.1 14.2-4.7 11-26 54.4-31.3 64-3.4 6.1-7.8 13.7-15.8 27.5-2.3 4.1-4.6 7.7-4.9 8-.4.3-1.3 1.6-2 3-3.8 7.2-25.7 39.3-38.8 56.7-4.8 6.4-9.6 12.8-10.7 14.2-5.6 7.5-28.6 34.7-39 46-7.1 7.9-41.8 42.6-49 49.1-3.8 3.5-8.8 8-11 9.9-3.3 3-11 9.5-27.4 23.3-15.9 13.4-58 43.2-81.1 57.5-43.6 26.9-88.6 49.2-137.5 68-16.8 6.5-63.5 21.5-71 22.9-1.6.3-3.3.8-3.8 1.1-.5.3-5.5 1.6-11 3-5.6 1.3-10.9 2.5-11.7 2.8-.8.2-4.9 1.1-9 2-4.1.9-8.3 1.8-9.2 2.1-3.6.8-6.4 1.4-12 2.4-3.2.6-7 1.3-8.5 1.5-8.6 1.6-25.4 4.4-29.3 4.9-2.5.3-5.4.8-6.5 1-1.1.2-4.7.7-8 1-3.3.4-7.1.9-8.5 1.1-4.7.7-11.5 1.4-20 2.1-4.7.4-10.1.8-12 .9-31 2.6-105.7 2.6-123 0-1.4-.2-6.5-.6-11.5-1-4.9-.4-9.2-.8-9.5-1-.3-.2-4.1-.6-8.5-.9-4.4-.4-8.7-.9-9.5-1.1-.8-.2-3.5-.6-6-.9-10.4-1.2-14.2-1.8-28-4.2-19.8-3.5-31.2-5.8-46.5-9.4-7.1-1.7-13.8-3.3-14.7-3.5-7.2-1.6-31.8-8.7-45.8-13.1-11-3.4-47-16.3-51.5-18.4-1.1-.5-9.2-3.9-18-7.5-12.9-5.3-63.4-29.7-69.5-33.5-.8-.5-7.1-4.2-14-8.1-6.9-3.9-19.9-11.8-29-17.5-9.1-5.8-17.4-11-18.5-11.7-1.1-.7-2.2-1.4-2.5-1.7-.3-.3-4.1-2.9-8.5-5.9-10.7-7.3-36.1-26.4-46-34.5-9.2-7.5-31.9-27-38-32.5-8-7.4-42.6-42-49.5-49.6-11.8-13.1-26-29.8-37.8-44.5-13.6-16.9-48.1-65.9-50-71-.3-.8-.9-1.7-1.2-2-.7-.5-10.7-17.2-16.5-27.5-12.2-21.6-30.7-58.8-39-78.5-3.1-7.4-6-14.4-6.5-15.5-1.9-4.4-5.1-12.6-9-23.5-2.3-6.3-4.5-12.4-5-13.5-.9-2.1-2.9-8.4-6-18-2.7-8.8-12.8-43.6-13.4-46.5-.3-1.4-1.7-7.2-3.1-13-2.7-11.1-6.6-29.6-9-43-2.1-12.2-3.7-22.1-4-25-.2-1.9-.6-4.9-.9-6.5-.2-1.7-.9-7.3-1.6-12.5-.6-5.2-1.3-11.3-1.5-13.5-.3-2.2-.8-6.9-1.1-10.5-.3-3.6-.7-8.5-.9-11-2.7-29.3-2.7-93.9 0-123 .2-2.5.7-8.1 1-12.5.8-8.8.9-10.2 1.9-19 .6-5.6.9-8 2.1-16.7.3-1.8.7-5.1 1-7.3.3-2.2 1-6.5 1.5-9.5s1.2-7.1 1.5-9c.3-1.9 1.2-6.9 2-11s1.7-8.9 2-10.5c4-24.4 17.7-74.3 30-109.1 15.4-43.5 39.6-96 60-130.6.6-.9 2.6-4.3 4.5-7.5s3.9-6.7 4.5-7.8c3.3-6 24.8-38.6 33.1-50.1 16.8-23.5 43-56 60.8-75.4 8.9-9.6 46.8-47.3 53.9-53.5 3.8-3.3 8.3-7.4 10.1-9 14.5-13.2 49.9-40.8 71.6-55.7 53.8-37 114.5-68.7 173.5-90.6 20-7.5 33.3-11.8 65-21.2 4.2-1.3 22.5-6 25.5-6.6 1.4-.3 4.3-1 6.5-1.6 2.2-.5 5.1-1.2 6.5-1.4 1.4-.3 3.1-.7 3.9-1 .8-.2 3-.7 5-1 2-.3 7.7-1.4 12.6-2.4 8.9-1.9 23.2-4.4 31-5.5 2.2-.3 4.9-.7 6-1 1.1-.2 4.3-.7 7-1 2.8-.3 6.6-.8 8.5-1.1 1.9-.3 5.5-.7 8-1 2.5-.2 5.9-.6 7.5-.9 1.7-.2 7.1-.7 12-1 5-.4 10.4-.9 12-1.1 1.7-.2 10.2-.6 19-1s16.2-.8 16.3-1c.5-.4 67.8.5 72.7 1z"/><path d="M960.9 439.4c-.2.2-5.5.7-11.7 1.1-6.2.3-12.1.8-13.1 1-1 .2-4.4.6-7.7.9-11.5 1.3-15 1.7-23.9 3.2-4.9.8-10.3 1.7-12 2-25.9 4.1-84.3 20.6-104 29.4-1.1.5-5.9 2.5-10.6 4.4-22.5 9.1-47.7 21.9-72.9 36.8-16.4 9.8-50 32.7-54 36.8-.3.3-4.8 3.9-10 8.1-5.2 4.2-10.6 8.6-12 9.8-34.5 30.1-65.5 63.9-89.7 97.6-4 5.5-7.6 10.4-8 11-2.4 3-16.2 25-23.6 37.7-9 15.3-23.8 45-30.2 60.3-2.1 4.9-4.3 10.3-5 12-8.6 20.5-26.7 79.6-24.9 81.4.7.7 265.3.8 266.3.1.4-.3 3.1-5.1 6-10.8 17.3-34.3 42.1-66.1 74.3-94.8 4.9-4.4 21.9-17.2 31-23.3 36.9-24.7 81.5-41.4 127.8-47.7 17.9-2.5 65.3-2.5 78.5 0 1.1.2 4.3.7 7 1 37.7 5.3 81.5 21.4 114.3 42.1 4.8 3.1 9.6 6.1 10.7 6.8 5.9 3.7 23.3 17.3 31.5 24.7 41 36.7 68.9 78.8 86.7 130.5 3.4 9.8 8.7 29.1 9.6 35 .3 1.6.8 3.7 1.1 4.5.5 1.5.7 2.8 2.1 13.5.4 2.7.9 6.1 1.1 7.5 1.1 6.1 1.9 21.9 1.9 38 0 16.3-1 36.3-1.9 37.8-.2.4-.6 3.4-1 6.7-.3 3.3-.8 7.1-1.1 8.5-.6 2.7-1.2 5.9-2 10.1-1.1 5.8-6.7 26.5-9.1 33.7-6.1 18.2-16.1 40.5-25.8 57.2-4.4 7.6-17.9 27.8-20.4 30.6-1 1-2.9 3.5-4.2 5.4-1.4 1.9-3.4 4.4-4.5 5.6-1.1 1.2-4.5 5-7.5 8.4-29.6 34.3-72.6 64.1-117 81.4-19.1 7.4-47.3 14.9-64 17.1-3 .4-6.4.9-7.5 1.1-13.6 2.6-62.5 2.6-79.5-.1-1.9-.3-6.6-1-10.5-1.6-3.8-.6-8.6-1.5-10.5-1.9-22.2-5.5-29.9-7.7-39.4-11.1-6.1-2.1-12-4.3-13.1-4.8-1.1-.5-4.5-2-7.5-3.2-3-1.3-11.1-5.2-17.9-8.7-55.8-28.4-103.6-75.7-132.5-131.3l-6.5-12.4H581.5c-73 0-133.1.2-133.6.5-2.3 1.5 13.8 53.9 25.6 83 5.6 14.1 23.1 51 27.9 59 .9 1.4 5.2 8.7 9.6 16.2 22.5 38.4 50.7 74.6 84.5 108.4 20.4 20.4 27.4 26.9 42.5 39 4.7 3.8 8.7 7.1 9 7.4 1.8 1.9 28.9 21.3 39.6 28.3 22 14.4 63.7 37.1 78.4 42.7 1.9.7 4 1.7 4.5 2.1 2.2 1.6 31 12.5 47.5 18 30.3 10 69.1 19.1 95 22.3 2.5.4 5.4.8 6.5 1 1.1.2 4.9.7 8.5 1.1 3.6.4 7.6.9 9 1 1.4.2 7 .7 12.5 1.1 5.5.4 11.8.8 14 1 5.2.4 50.5.4 57 0 12-.8 26.2-1.8 29-2.2 1.7-.2 5.3-.6 8-.9 2.8-.4 6.6-.8 8.5-1.1 1.9-.3 5.3-.7 7.5-1 4.4-.6 5-.7 18-2.9 5-.9 10.3-1.8 11.9-2.1 4.1-.7 31.3-7.1 37.1-8.8 16-4.6 21.2-6.2 32-9.9 56.4-18.9 109.3-46.9 158.1-83.5 38.9-29.1 81.7-71.8 109.8-109.7 5-6.6 10.1-13.6 11.6-15.5 3.6-4.8 14.6-21.8 20.5-31.5 20.9-34.5 38.2-71.4 51-108.5 11.8-34.4 22.4-79.9 26-111 .2-2.5.7-6.5 1-9 2.3-18.7 2.9-30.8 2.9-63 0-27-.7-48-1.9-54.1-.2-.9-.6-5.2-1-9.5s-.9-8.8-1.1-9.9c-.8-4.2-1.4-8.1-1.9-11.5-.9-8-1.6-12.6-2.1-13.9-.3-.8-.7-3-1-5-1.1-7.2-5.6-26.9-8.9-39.6-13.4-50.8-34-99.8-60.7-144.5-9.2-15.3-36-54.5-39.8-58-.3-.3-2.3-2.8-4.5-5.5-6.6-8.2-7.7-9.5-16.4-19.4-13.3-15-32.1-34.1-44.1-44.8-2.5-2.2-7.1-6.3-10.3-9.2-12.9-11.5-37.9-30.5-56.2-42.7-56.1-37.5-125.2-66.9-189-80.5-3.3-.7-6.4-1.4-7-1.5-5.8-1.4-34.7-6.1-42.5-6.9-3.6-.4-7.3-.9-8.4-1.1-1-.2-5.1-.6-9-.9-3.9-.4-9.3-.9-12.1-1.2-6.1-.6-73-1.5-73.6-.9z"/></svg>